# xmcd CD database file
#
# Track frame offsets:
#	150
#	11615
#	19065
#	45722
#	59270
#	76610
#	89822
#	105962
#	118485
#	139240
#	151487
#	159767
#	172840
#	186447
#	199787
#	213087
#	234362
#	251937
#	271585
#	289380
#	299687
#	310245
#
# Disc length: 4341 seconds
#
# Revision: 3
# Processed by: cddbd v1.5.2PL0 Copyright (c) Steve Scherf et al.
# Submitted via: Feurio! 1.68 - http://www.feurio.com
#
DISCID=3710f316
DTITLE=Various Artist - Takoma Blues
DYEAR=1998
DGENRE=blues
TTITLE0=Little Brother Montgomery - Hesitating Blues
TTITLE1=John Lee Granderson - Minglewood Town
TTITLE2=Dr. Isaiah Ross - Chicago Breakdown
TTITLE3=Big Joe Williams - I Feel So Worried
TTITLE4=James Cotton, Paul Butterfield and Elvin Bishop - V-8 Ford Blues
TTITLE5=Maxwell Street Jimmy - Cryin' Won't Make Me Stay
TTITLE6=Little Brother Montgomery and Michael Bloomfield - Michigan Water Blues
TTITLE7=John Lee Granderson - Good Morning, Little Schoolgirl
TTITLE8=Dr. Isaiah Ross - Hobo Blues
TTITLE9=Big Joe Williams and Paul Butterfield - Stack o' Dollars
TTITLE10=James Cotton, Paul Butterfield and Elvin Bishop - Polly, Put the Kettle 
TTITLE10=On
TTITLE11=Eddie Boyd - Five Long Years
TTITLE12=Dr. Isaiah Ross - Good Morning, Little Schoolgirl
TTITLE13=Maxwell Street Jimmy - Alberta
TTITLE14=Big Joe Williams - I Ain't Got Nobody
TTITLE15=Edward James ''Son'' House, Jr. - Preachin' Blues
TTITLE16=Rev. Robert Wilkins - I Wish I Was in Heaven Sitting Down
TTITLE17=Little Brother Montgomery and Michael Bloomfield - Pleadin' Blues
TTITLE18=Sunnyland Slim - Lend Me Your Love
TTITLE19=Maxwell Street Jimmy - Two Trains Running
TTITLE20=Big Joe Williams and Paul Butterfield - Whistling Pines
TTITLE21=Rev. Robert Wilkins - O Lord, I Want You to Help Me
EXTD=from Takoma LPs: Chicago Breakdown and Rare Blues\r\nrecorded in Chicago 
EXTD=early to mid sixties by Norman Dayron
EXTT0=
EXTT1=
EXTT2=
EXTT3=
EXTT4=
EXTT5=
EXTT6=
EXTT7=
EXTT8=
EXTT9=
EXTT10=
EXTT11=
EXTT12=
EXTT13=
EXTT14=
EXTT15=
EXTT16=
EXTT17=
EXTT18=
EXTT19=
EXTT20=
EXTT21=
PLAYORDER=
